<svg id="Layer_1" data-name="Layer 1" xmlns="http://www.w3.org/2000/svg" viewBox="0 0 3165.83 715.5"><defs><style>.cls-1{fill:#5b5b5b;}.cls-2{fill:#6c0302;}.cls-3{fill:#525252;}.cls-4{fill:none;}.cls-5{fill:#f7ebea;}.cls-6{fill:#e8dad9;}.cls-7{fill:#cfcfcf;}.cls-8{fill:#d2d2d2;}.cls-9{fill:#e9e9e9;}.cls-10{fill:#b78989;}.cls-11{fill:#ac7c7b;}.cls-12{fill:#f9f4f3;}.cls-13{fill:#ddb2ae;}.cls-14{fill:#ebc1bf;}.cls-15{fill:#4d4d4d;}.cls-16{fill:#6b0101;}</style></defs><title>landscape Orignal Logo</title><rect class="cls-1" x="870.37" y="633.37" width="2227.74" height="6.55"/><path class="cls-2" d="M1207.34,216.23a205.18,205.18,0,0,0-19.23,19.61,184.81,184.81,0,0,0-16.8,23.34,290.15,290.15,0,0,0-15.69,29.5q-7.65,16.43-16.24,38.08a325.43,325.43,0,0,1-14.56,32.49,134.81,134.81,0,0,1-15.5,23.52,108.27,108.27,0,0,1-19,17.93,212.73,212.73,0,0,1-25.21,15.68,232.35,232.35,0,0,1-44.62,17.18q-23.34,6.35-43.13,6.35-29.12,0-46.11-14.38t-17-39A66.66,66.66,0,0,1,918,364.29a79.77,79.77,0,0,1,12.32-21.84,40.49,40.49,0,0,1-.37-4.85v-4.11q0-27.57,16.45-53.82t43.55-46.75A232.42,232.42,0,0,1,1051.59,200a207.15,207.15,0,0,1,70.84-12.49q49.35,0,89.35,20.91,18.3-11.94,32.31-17a86.72,86.72,0,0,1,29.68-5q25.39,0,39.58,14.57t14.19,40.7a79.41,79.41,0,0,1-1.68,16.8c-1.11,5.23-2.3,7.84-3.54,7.84-.75,0-1.12-.49-1.12-1.49v-1.12a21.61,21.61,0,0,1,.74-3,61,61,0,0,0,1.87-9.52c.25-2.62.37-5.66.37-9.15q0-24.65-13.44-38.83t-37-14.19a81.72,81.72,0,0,0-28.38,5.22q-14.19,5.24-29.87,16.06,16.82,10.08,24.48,22.22a50.89,50.89,0,0,1,7.67,27.82q0,42.19-62.06,51.9,27,13.44,27,37.72a84.78,84.78,0,0,1-1.29,14q-1.3,7.66-4.26,20.72L1203.58,400c-.87,3.73-1.48,6.78-1.86,9.14s-.61,4.3-.74,5.79-.18,3.11-.18,4.86q0,23.14,18.89,23.14a30.49,30.49,0,0,0,14.16-3.92,36.8,36.8,0,0,0,12.33-10.26c1-1.5,1.86-2.24,2.61-2.24,1,0,1.49.37,1.49,1.12,0,1.71-1.12,3.59-3.36,5.66a41.37,41.37,0,0,1-8.4,5.86,75.79,75.79,0,0,1-10.64,4.76,30.14,30.14,0,0,1-10,2,34.62,34.62,0,0,1-16.12-3.93,46.33,46.33,0,0,1-13.53-10.64,49.38,49.38,0,0,1-9.3-15.87,55.3,55.3,0,0,1-3.36-19.23,73,73,0,0,1,1.68-15.31q1.68-7.85,6.16-23.15,3.35-11.2,4.83-17.74a53.55,53.55,0,0,0,1.49-11.76,18.14,18.14,0,0,0-7.06-14.94c-5,.5-8.84.88-11.58,1.12s-5.48.37-8.21.37q-13.08,0-13.07-4.1c0-2,3.6-3,10.83-3a69.61,69.61,0,0,1,10.26.75,100,100,0,0,1,11.77,2.61q18.9-6,29.47-21.28t10.55-36.22a56.46,56.46,0,0,0-3.55-20.91A44.49,44.49,0,0,0,1207.34,216.23Zm-3-3a101,101,0,0,0-33.65-16.43,149.36,149.36,0,0,0-41.49-5.6A178.56,178.56,0,0,0,1069,201.86,211,211,0,0,0,1014,231a206.42,206.42,0,0,0-43.37,43.12,154.42,154.42,0,0,0-25.8,52.65,136.9,136.9,0,0,1,18.3-12.69,87.35,87.35,0,0,1,19-7.84,110.94,110.94,0,0,1,16.25-23.34,123,123,0,0,1,21.47-19,110.94,110.94,0,0,1,23.9-12.7,67.25,67.25,0,0,1,23.89-4.67q14.19,0,22.6,8.22t8.4,22q0,17.92-10.46,38.27t-29.13,39.4q-37.71,37.35-75.42,37.34-21.29,0-34.73-11.58t-17.94-34a83.79,83.79,0,0,0-10.64,20.17,60.94,60.94,0,0,0-3.18,19.79q0,23.16,15.7,36.78t41.86,13.63a92.44,92.44,0,0,0,34.2-6.72,113.24,113.24,0,0,0,31.6-19.05q6-5.59,10.84-10.45a124.6,124.6,0,0,0,11.58-14q6.74-9.13,17.39-25.2t29-44.06a461.47,461.47,0,0,1,45-58.63A327.47,327.47,0,0,1,1204.3,213.25ZM997.11,305.48Q985.53,326,985.54,341.33q0,9,4.11,14t11.57,5c2,.25,3,.63,3,1.12,0,1.25-1,1.87-3,1.87q-10.83,0-18.3-9T975.46,332a54.23,54.23,0,0,1,5.22-22.4q-18.67,6.35-37,22.4c-.51,3.49-.88,6.23-1.13,8.22a53,53,0,0,0-.37,6.34q0,19.43,11.2,30.63T984,388.38q36.23,0,72.44-36.59a152.16,152.16,0,0,0,28.2-37.91q10.26-20,10.26-36.78,0-11.94-7.09-19.6t-18.67-7.66q-16.8,0-35.47,14t-34.73,39a18,18,0,0,1,3.55-.38h2.8a30.07,30.07,0,0,1,11.2,2.24,44,44,0,0,1,10.08,5.6,30.31,30.31,0,0,1,7.29,7.66,16,16,0,0,1,2.79,8.77c0,1-.37,1.5-1.12,1.5a1.26,1.26,0,0,1-1.12-.56,15.45,15.45,0,0,1-1.12-3.18q-7.1-19.41-28-19.41Z"/><path class="cls-2" d="M1343.64,333.86c2.73.5,5,.88,6.91,1.12a56.92,56.92,0,0,0,7.27.37h4.67c1.37,0,2.8-.05,4.3-.18s3.23-.31,5.22-.56,4.36-.5,7.1-.75l-24.64,40.7q-10.85,17.93-16.44,27.63t-8.4,14.38a31.05,31.05,0,0,0-3.17,6.16,12.3,12.3,0,0,0-.37,3q0,6.34,7.46,6.35,9,0,23.16-14.19t32.86-41.45q3-4.49,4.47-4.48c.76,0,1.13.25,1.13.74s-.94,2.06-2.8,4.67-4.11,5.79-6.73,9.52-5.54,7.66-8.77,11.77-6.11,7.78-8.59,11q-11.19,14.2-20.35,20.36a33.42,33.42,0,0,1-18.86,6.16,23.06,23.06,0,0,1-17.17-7.29,24.45,24.45,0,0,1-7.1-17.74q0-7.83,5.23-18.29-13.44,23.16-24.65,33.23T1263,436.18a25.93,25.93,0,0,1-11.39-2.62,29,29,0,0,1-9.33-7.09,35.88,35.88,0,0,1-6.35-10.64,34.65,34.65,0,0,1-2.43-12.89q0-11.56,7.84-23.9a98.19,98.19,0,0,1,20.16-22.59,113.64,113.64,0,0,1,27.27-16.8q14.93-6.52,28.75-6.54,15.3,0,15.31,12.33a23.93,23.93,0,0,1-.94,7.09,54.75,54.75,0,0,1-3.92,8.59Zm-22,2.61c-3,0-6.66,1.56-11,4.67A92.12,92.12,0,0,0,1297,353.47a183.69,183.69,0,0,0-14,17.17q-6.92,9.53-12.51,19.05A138.57,138.57,0,0,0,1261.3,408q-3.55,8.77-3.55,14.75a10.74,10.74,0,0,0,2.24,6.91,7.26,7.26,0,0,0,6,2.8q8.21,0,17.92-8.59t21.66-27.63a315.52,315.52,0,0,0,17.92-30.62q6.72-13.44,6.72-19.42Q1330.19,336.48,1321.6,336.47Z"/><path class="cls-2" d="M1406.74,407.42q-3.36,5.59-5.23,8.78a39.88,39.88,0,0,0-2.62,5,18.42,18.42,0,0,0-.93,2.8,10.09,10.09,0,0,0-.18,2,5.82,5.82,0,0,0,2,4.48,7.2,7.2,0,0,0,5,1.87q17.93,0,55.64-55.64c2-3,3.48-4.48,4.48-4.48.75,0,1.12.25,1.12.75s-.94,2.05-2.8,4.67-4.11,5.78-6.72,9.52-5.48,7.65-8.59,11.76-5.92,7.78-8.4,11q-11.58,14.19-20.91,20.16a35,35,0,0,1-19,6,22.09,22.09,0,0,1-16.62-7.29,24.82,24.82,0,0,1-6.9-17.74,41.88,41.88,0,0,1,2.8-14.37,115.7,115.7,0,0,1,9.52-18.86l26.88-45.18a38.87,38.87,0,0,0,7.29,1.49,85.27,85.27,0,0,0,8.77.38q3.36,0,8.78-.56t10.64-1.31Zm60.12-136.29a10.75,10.75,0,0,1,8.21,3.17,11.78,11.78,0,0,1,3,8.4,23,23,0,0,1-3.18,11,49.61,49.61,0,0,1-7.84,10.64,39.5,39.5,0,0,1-10.45,7.84,24,24,0,0,1-11,3q-11.58,0-11.57-11.57a22.93,22.93,0,0,1,3.17-11,43.28,43.28,0,0,1,8-10.46,50.3,50.3,0,0,1,10.64-7.84A23,23,0,0,1,1466.86,271.13Z"/><path class="cls-2" d="M1522.49,378.67l11.58-16.43a86.37,86.37,0,0,1,20.53-20.91q11.58-8.22,20.54-8.22a23.39,23.39,0,0,1,17.93,7.69q7.08,7.68,7.09,19.3a37.27,37.27,0,0,1-.56,6.75,29.2,29.2,0,0,1-2.42,6.94,84.15,84.15,0,0,1-5.42,9.37q-3.55,5.43-9.15,14-10.08,14.64-13.44,20.44t-3.36,8.43a5.5,5.5,0,0,0,2.24,4.68,9,9,0,0,0,5.6,1.69q17.92,0,55.64-55.64c2-3,3.6-4.48,4.85-4.48a.66.66,0,0,1,.75.75q0,.75-3,5t-7.09,10.08c-2.75,3.86-5.6,7.78-8.59,11.77s-5.61,7.34-7.85,10.08q-11.94,14.19-21.09,20.16a34.13,34.13,0,0,1-18.86,6,24.77,24.77,0,0,1-18.11-7.66,25.18,25.18,0,0,1-7.65-18.48,31.67,31.67,0,0,1,2.8-12.51,109.66,109.66,0,0,1,9.89-17q8.2-12.33,12.88-19.42t6.91-10.83a37.92,37.92,0,0,0,2.8-5.23,8.49,8.49,0,0,0,.56-3,5.54,5.54,0,0,0-1.86-4.3,6.5,6.5,0,0,0-4.49-1.68q-8.22,0-20.53,11.2t-26.51,31.37q-4.48,6.36-7.84,11.39t-6.92,11.2q-3.54,6.17-8,14.38l-11.2,20.54a39.9,39.9,0,0,0-7.29-1.5,81.39,81.39,0,0,0-8.4-.37,94.88,94.88,0,0,0-10.64.56c-3.36.37-6.79.8-10.27,1.31l24.27-40.33q15.32-25,21.47-37t6.16-16.06q0-5.6-5.59-5.6-4.86,0-15.13,11t-22.22,28.94c-1.25,1.49-2.11,2.24-2.61,2.24a1,1,0,0,1-1.12-1.12,14.75,14.75,0,0,1,1.87-3.18c1.24-1.87,2.8-4.16,4.66-6.91s3.92-5.6,6.16-8.58,4.36-5.73,6.35-8.22q8.22-10.08,14.19-14.19a22.57,22.57,0,0,1,13.07-4.11,21,21,0,0,1,15.87,6.91,23.33,23.33,0,0,1,6.54,16.62q0,13.82-10.46,26.88Z"/><path class="cls-2" d="M1729,333.86c2.74.5,5,.88,6.92,1.12a56.92,56.92,0,0,0,7.27.37h4.67c1.37,0,2.8-.05,4.3-.18s3.23-.31,5.22-.56,4.36-.5,7.1-.75l-24.64,40.7q-10.85,17.93-16.44,27.63t-8.4,14.38a31.05,31.05,0,0,0-3.17,6.16,12.3,12.3,0,0,0-.37,3q0,6.34,7.46,6.35,9,0,23.16-14.19t32.85-41.45q3-4.49,4.48-4.48c.76,0,1.13.25,1.13.74s-.94,2.06-2.8,4.67-4.11,5.79-6.73,9.52-5.54,7.66-8.77,11.77-6.11,7.78-8.59,11q-11.2,14.2-20.35,20.36a33.42,33.42,0,0,1-18.86,6.16,23.06,23.06,0,0,1-17.17-7.29,24.45,24.45,0,0,1-7.1-17.74q0-7.83,5.23-18.29-13.44,23.16-24.65,33.23t-22.4,10.09a25.93,25.93,0,0,1-11.39-2.62,29,29,0,0,1-9.33-7.09,35.88,35.88,0,0,1-6.35-10.64,34.65,34.65,0,0,1-2.43-12.89q0-11.56,7.84-23.9a98.19,98.19,0,0,1,20.16-22.59,113.64,113.64,0,0,1,27.27-16.8q14.93-6.52,28.75-6.54,15.3,0,15.31,12.33a23.93,23.93,0,0,1-.94,7.09,54.75,54.75,0,0,1-3.92,8.59Zm-22,2.61c-3,0-6.66,1.56-11,4.67a92.12,92.12,0,0,0-13.63,12.33,183.69,183.69,0,0,0-14,17.17q-6.91,9.53-12.51,19.05a137.35,137.35,0,0,0-9.15,18.29q-3.56,8.77-3.55,14.75a10.74,10.74,0,0,0,2.24,6.91,7.25,7.25,0,0,0,6,2.8q8.21,0,17.92-8.59t21.66-27.63a315.52,315.52,0,0,0,17.92-30.62q6.72-13.44,6.72-19.42Q1715.54,336.48,1707,336.47Z"/><path class="cls-2" d="M2007.54,433.19l-9.89,1.86c-2.62.5-4.92.87-6.91,1.13s-4,.43-6,.55-4.23.19-6.71.19a116.09,116.09,0,0,1-37.72-6,99.88,99.88,0,0,1-30.62-16.42,78.41,78.41,0,0,1-20.54-24.46,62.17,62.17,0,0,1-7.46-29.69q0-16.8,9.14-32.86a93.24,93.24,0,0,1,25.58-28.38,139.63,139.63,0,0,1,12.88-8.77,149,149,0,0,1,14.76-7.66q8.21-3.72,18.29-7.28t23.9-8q13.44-4.11,20-6.35a130.12,130.12,0,0,0,12.88-5.23,162.22,162.22,0,0,1,16.8-22.59,222.72,222.72,0,0,1,19.42-19.61A119.47,119.47,0,0,1,2074,199.81q9-5.24,14.94-5.23,6.72,0,6.72,5.6,0,4.11-5.6,10.83a110.6,110.6,0,0,1-15.31,14.56q-9.72,7.85-23.34,16.8t-29.69,17.56q-4.47,8.2-8,16.24a137.76,137.76,0,0,0-6.53,18.86c3.49-.5,6.22-.88,8.21-1.12a54.3,54.3,0,0,1,6.73-.38,65.79,65.79,0,0,1,24.08,4.3,59.1,59.1,0,0,1,19,11.76,51.64,51.64,0,0,1,12.51,18.11,58.5,58.5,0,0,1,4.49,23,72.18,72.18,0,0,1-4.67,25.77,79,79,0,0,1-13.44,22.78,97.47,97.47,0,0,1-21.29,18.67A122.16,122.16,0,0,1,2015,431.32q9.71,10.83,19.79,15.12t24.27,4.3A81.34,81.34,0,0,0,2091,444a98.75,98.75,0,0,0,28.19-17.93,96.5,96.5,0,0,0,20-25.21,58.92,58.92,0,0,0,7.66-28.56q0-6.35-3-16.06v-1.12c0-.74.49-1.11,1.49-1.11q1.86,0,3.36,6.16a53.1,53.1,0,0,1,1.5,12.5,61.6,61.6,0,0,1-7.85,29.5,95.74,95.74,0,0,1-20.53,26,108.53,108.53,0,0,1-28.76,18.48,80.53,80.53,0,0,1-32.85,7.1q-30.63,0-49.67-21.29Zm3-166.92-4.11,2.24q-45.93,25-69.27,53.22t-23.33,58.06a49.31,49.31,0,0,0,4.48,20.92,52.64,52.64,0,0,0,12.32,16.92A58.56,58.56,0,0,0,1949.1,429a62.26,62.26,0,0,0,23,4.18,86.53,86.53,0,0,0,16.43-1.52,111.28,111.28,0,0,0,17.92-5.32,56.14,56.14,0,0,1-4.85-8,104.4,104.4,0,0,1-4.11-9.85,61.18,61.18,0,0,1-6.72.94c-1.74.12-3.24.18-4.48.18a52.42,52.42,0,0,1-19.42-3.54,45.94,45.94,0,0,1-25.77-24.84,45.51,45.51,0,0,1-3.73-18.3,50.06,50.06,0,0,1,4.48-20.53,65.44,65.44,0,0,1,12.7-18.67,98.11,98.11,0,0,1,19.79-15.69,116.06,116.06,0,0,1,25.77-11.57q3.72-9.7,7.09-17.55t7.1-14.94Zm-12,35.48a78.9,78.9,0,0,0-19.6,11.57,87.61,87.61,0,0,0-15.31,15.87,71.62,71.62,0,0,0-10.08,18.67,58.74,58.74,0,0,0-3.55,20q0,17.19,10.45,27.63t28,10.46h3.36a32.18,32.18,0,0,0,4.48-.37,132.25,132.25,0,0,1-7.47-44.82Q1988.87,333.11,1998.58,301.75Zm11.58,122.48A112.39,112.39,0,0,0,2035,409.1a123.44,123.44,0,0,0,19.79-19.79A95.4,95.4,0,0,0,2068,367.09a58.64,58.64,0,0,0,4.85-22.77,45.77,45.77,0,0,0-3.92-18.86,49,49,0,0,0-10.64-15.31,46.71,46.71,0,0,0-15.87-10.08,54.79,54.79,0,0,0-20-3.55,70.39,70.39,0,0,0-7.47.37,67,67,0,0,0-9,1.87q-5.23,19.8-7.84,35.66a188.8,188.8,0,0,0-2.62,30.81,140.18,140.18,0,0,0,1.31,20,123.31,123.31,0,0,0,4.29,18.86,53.81,53.81,0,0,0,14.94-6.53,64.5,64.5,0,0,0,11.76-9.52,38.41,38.41,0,0,0,7.66-11.21,29.57,29.57,0,0,0,2.61-11.95q0-5.6,4.86-5.6c3.48,0,5.23,1.49,5.23,4.49q0,5.6-3.74,12.13a55.39,55.39,0,0,1-10.27,12.69,90,90,0,0,1-32.3,19.24q1.86,5.24,3.55,8.77A47.92,47.92,0,0,0,2010.16,424.23Zm16.06-171.4a227.93,227.93,0,0,0,23.52-13.25q11.94-7.65,21.28-14.94a125.06,125.06,0,0,0,15.31-13.82q6-6.52,6-9.89a2.65,2.65,0,0,0-3-3q-5.24,0-13.26,4.85a123.06,123.06,0,0,0-17,12.7A216.53,216.53,0,0,0,2041.33,233,143,143,0,0,0,2026.22,252.83Z"/><path class="cls-2" d="M2553.45,216.23a205.18,205.18,0,0,0-19.23,19.61,184.81,184.81,0,0,0-16.8,23.34,290.15,290.15,0,0,0-15.69,29.5q-7.65,16.43-16.24,38.08a323.16,323.16,0,0,1-14.56,32.49,134.24,134.24,0,0,1-15.5,23.52,108.27,108.27,0,0,1-19,17.93,212.73,212.73,0,0,1-25.21,15.68,232.1,232.1,0,0,1-44.62,17.18q-23.34,6.35-43.13,6.35-29.11,0-46.11-14.38t-17-39a66.66,66.66,0,0,1,3.73-22.22,80,80,0,0,1,12.32-21.84,40.49,40.49,0,0,1-.37-4.85v-4.11q0-27.57,16.45-53.82T2336,232.92A232.42,232.42,0,0,1,2397.7,200a207.19,207.19,0,0,1,70.84-12.49q49.35,0,89.35,20.91,18.3-11.94,32.31-17a86.72,86.72,0,0,1,29.68-5q25.39,0,39.59,14.57t14.19,40.7a79.4,79.4,0,0,1-1.69,16.8c-1.11,5.23-2.3,7.84-3.54,7.84-.75,0-1.12-.49-1.12-1.49v-1.12a21.61,21.61,0,0,1,.74-3,61,61,0,0,0,1.87-9.52c.25-2.62.37-5.66.37-9.15q0-24.65-13.44-38.83t-37-14.19a81.62,81.62,0,0,0-28.37,5.22q-14.21,5.24-29.88,16.06,16.83,10.08,24.49,22.22a51,51,0,0,1,7.66,27.82q0,42.19-62.06,51.9,27,13.44,27,37.72a84.78,84.78,0,0,1-1.29,14q-1.3,7.66-4.26,20.72-2.22,9.72-3.52,15.32c-.87,3.73-1.48,6.78-1.86,9.14s-.61,4.3-.74,5.79-.18,3.11-.18,4.86q0,23.14,18.89,23.14A30.49,30.49,0,0,0,2580,439a36.8,36.8,0,0,0,12.33-10.26c1-1.5,1.86-2.24,2.61-2.24,1,0,1.49.37,1.49,1.12,0,1.71-1.11,3.59-3.35,5.66a41.45,41.45,0,0,1-8.41,5.86,75.79,75.79,0,0,1-10.64,4.76,30.1,30.1,0,0,1-10,2,34.62,34.62,0,0,1-16.12-3.93,46.16,46.16,0,0,1-13.52-10.64,49.22,49.22,0,0,1-9.31-15.87,55.53,55.53,0,0,1-3.36-19.23,73,73,0,0,1,1.68-15.31q1.69-7.85,6.16-23.15,3.34-11.2,4.84-17.74a54.1,54.1,0,0,0,1.48-11.76,18.14,18.14,0,0,0-7.06-14.94q-7.47.75-11.58,1.12t-8.21.37q-13.08,0-13.07-4.1,0-3,10.83-3a69.85,69.85,0,0,1,10.27.75,100.3,100.3,0,0,1,11.76,2.61q18.9-6,29.47-21.28t10.55-36.22a56.67,56.67,0,0,0-3.54-20.91A44.64,44.64,0,0,0,2553.45,216.23Zm-3-3a100.92,100.92,0,0,0-33.65-16.43,149.36,149.36,0,0,0-41.49-5.6,178.56,178.56,0,0,0-60.19,10.64A211,211,0,0,0,2360.13,231a206.42,206.42,0,0,0-43.37,43.12,154.6,154.6,0,0,0-25.8,52.65,136.9,136.9,0,0,1,18.3-12.69,87.44,87.44,0,0,1,19-7.84,110.52,110.52,0,0,1,16.24-23.34,123,123,0,0,1,21.47-19,110.94,110.94,0,0,1,23.9-12.7,67.25,67.25,0,0,1,23.89-4.67q14.19,0,22.6,8.22t8.4,22q0,17.92-10.46,38.27t-29.12,39.4q-37.72,37.35-75.43,37.34-21.28,0-34.73-11.58t-17.94-34a83.79,83.79,0,0,0-10.64,20.17,60.94,60.94,0,0,0-3.18,19.79q0,23.16,15.7,36.78t41.86,13.63a92.44,92.44,0,0,0,34.2-6.72,113.09,113.09,0,0,0,31.6-19.05q6-5.59,10.84-10.45a123.51,123.51,0,0,0,11.58-14q6.73-9.13,17.39-25.2t29-44.06a461.47,461.47,0,0,1,45-58.63A327.47,327.47,0,0,1,2550.41,213.25Zm-207.19,92.23q-11.58,20.55-11.57,35.85,0,9,4.11,14t11.57,5c2,.25,3,.63,3,1.12,0,1.25-1,1.87-3,1.87q-10.83,0-18.3-9T2321.57,332a54.39,54.39,0,0,1,5.22-22.4q-18.67,6.35-37,22.4c-.5,3.49-.88,6.23-1.12,8.22a51,51,0,0,0-.38,6.34q0,19.43,11.2,30.63t30.63,11.2q36.21,0,72.44-36.59a152.11,152.11,0,0,0,28.19-37.91q10.26-20,10.27-36.78,0-11.94-7.1-19.6t-18.67-7.66q-16.8,0-35.47,14t-34.73,39a18,18,0,0,1,3.55-.38h2.8a30,30,0,0,1,11.2,2.24,43.8,43.8,0,0,1,10.08,5.6A30.31,30.31,0,0,1,2380,318a16,16,0,0,1,2.8,8.77c0,1-.38,1.5-1.13,1.5a1.25,1.25,0,0,1-1.11-.56,14.63,14.63,0,0,1-1.13-3.18q-7.09-19.41-28-19.41Z"/><path class="cls-2" d="M2689.75,333.86c2.73.5,5,.88,6.91,1.12a57,57,0,0,0,7.28.37h4.66c1.37,0,2.81-.05,4.3-.18s3.23-.31,5.23-.56,4.35-.5,7.09-.75l-24.64,40.7q-10.85,17.93-16.43,27.63t-8.4,14.38a31.93,31.93,0,0,0-3.18,6.16,12.3,12.3,0,0,0-.37,3c0,4.23,2.48,6.35,7.47,6.35q9,0,23.15-14.19t32.86-41.45q3-4.49,4.48-4.48c.75,0,1.12.25,1.12.74s-.94,2.06-2.8,4.67-4.11,5.79-6.72,9.52-5.54,7.66-8.78,11.77-6.1,7.78-8.59,11Q2703.2,423.87,2694,430a33.39,33.39,0,0,1-18.85,6.16,23.06,23.06,0,0,1-17.18-7.29,24.44,24.44,0,0,1-7.09-17.74q0-7.83,5.22-18.29Q2642.7,416,2631.5,426.09t-22.41,10.09a25.93,25.93,0,0,1-11.39-2.62,29,29,0,0,1-9.33-7.09,36.09,36.09,0,0,1-6.35-10.64,34.85,34.85,0,0,1-2.43-12.89q0-11.56,7.84-23.9a98,98,0,0,1,20.17-22.59,113.39,113.39,0,0,1,27.26-16.8q14.92-6.52,28.75-6.54,15.32,0,15.31,12.33a23.93,23.93,0,0,1-.94,7.09,53.82,53.82,0,0,1-3.92,8.59Zm-22,2.61q-4.48,0-11,4.67a92.12,92.12,0,0,0-13.63,12.33,183.69,183.69,0,0,0-14,17.17q-6.92,9.53-12.51,19.05a139.81,139.81,0,0,0-9.15,18.29q-3.55,8.77-3.55,14.75a10.74,10.74,0,0,0,2.24,6.91,7.27,7.27,0,0,0,6,2.8q8.21,0,17.92-8.59t21.66-27.63a313.47,313.47,0,0,0,17.92-30.62q6.72-13.44,6.72-19.42Q2676.3,336.48,2667.72,336.47Z"/><path class="cls-2" d="M2752.85,407.42q-3.36,5.59-5.23,8.78a38.27,38.27,0,0,0-2.61,5,17.63,17.63,0,0,0-.94,2.8,10.86,10.86,0,0,0-.18,2,5.82,5.82,0,0,0,2.05,4.48,7.2,7.2,0,0,0,5,1.87q17.92,0,55.64-55.64c2-3,3.48-4.48,4.48-4.48.75,0,1.12.25,1.12.75s-.93,2.05-2.8,4.67-4.11,5.78-6.72,9.52-5.48,7.65-8.59,11.76-5.92,7.78-8.4,11q-11.58,14.19-20.91,20.16a35,35,0,0,1-19.05,6,22.06,22.06,0,0,1-16.61-7.29,24.78,24.78,0,0,1-6.91-17.74,41.88,41.88,0,0,1,2.8-14.37,116.52,116.52,0,0,1,9.52-18.86l26.89-45.18a38.61,38.61,0,0,0,7.28,1.49,85.41,85.41,0,0,0,8.77.38q3.36,0,8.78-.56c3.61-.37,7.15-.81,10.64-1.31ZM2813,271.13a10.75,10.75,0,0,1,8.21,3.17,11.73,11.73,0,0,1,3,8.4,23,23,0,0,1-3.17,11,50.3,50.3,0,0,1-7.84,10.64,39.71,39.71,0,0,1-10.46,7.84,24,24,0,0,1-11,3q-11.58,0-11.57-11.57a23,23,0,0,1,3.17-11,43.54,43.54,0,0,1,8-10.46A50.3,50.3,0,0,1,2802,274.3,23,23,0,0,1,2813,271.13Z"/><path class="cls-2" d="M2868.6,378.67l11.58-16.43a86.55,86.55,0,0,1,20.53-20.91q11.58-8.22,20.54-8.22a23.37,23.37,0,0,1,17.93,7.69q7.08,7.68,7.09,19.3a36.39,36.39,0,0,1-.56,6.75,29.2,29.2,0,0,1-2.42,6.94,82.59,82.59,0,0,1-5.42,9.37q-3.55,5.43-9.15,14-10.08,14.64-13.44,20.44t-3.36,8.43a5.5,5.5,0,0,0,2.24,4.68,9,9,0,0,0,5.6,1.69q17.92,0,55.64-55.64c2-3,3.61-4.48,4.85-4.48a.66.66,0,0,1,.75.75q0,.75-3,5t-7.09,10.08c-2.75,3.86-5.6,7.78-8.59,11.77s-5.6,7.34-7.84,10.08q-12,14.19-21.1,20.16a34.11,34.11,0,0,1-18.86,6,24.77,24.77,0,0,1-18.11-7.66,25.18,25.18,0,0,1-7.65-18.48,31.67,31.67,0,0,1,2.8-12.51,109.66,109.66,0,0,1,9.89-17q8.22-12.33,12.89-19.42c3.1-4.73,5.41-8.34,6.9-10.83a39.55,39.55,0,0,0,2.81-5.23,8.48,8.48,0,0,0,.55-3,5.54,5.54,0,0,0-1.86-4.3,6.5,6.5,0,0,0-4.48-1.68q-8.22,0-20.54,11.2t-26.51,31.37q-4.48,6.36-7.84,11.39t-6.91,11.2q-3.55,6.17-8,14.38l-11.2,20.54a40,40,0,0,0-7.28-1.5,81.52,81.52,0,0,0-8.4-.37,94.93,94.93,0,0,0-10.65.56c-3.36.37-6.78.8-10.27,1.31l24.27-40.33q15.32-25,21.47-37t6.16-16.06q0-5.6-5.59-5.6-4.86,0-15.13,11t-22.21,28.94c-1.25,1.49-2.12,2.24-2.62,2.24a1,1,0,0,1-1.12-1.12,14.75,14.75,0,0,1,1.87-3.18c1.24-1.87,2.8-4.16,4.66-6.91s3.92-5.6,6.16-8.58,4.36-5.73,6.35-8.22q8.22-10.08,14.19-14.19a22.57,22.57,0,0,1,13.07-4.11A21,21,0,0,1,2868,340a23.33,23.33,0,0,1,6.54,16.62q0,13.82-10.46,26.88Z"/><path class="cls-2" d="M3075.1,333.86c2.73.5,5,.88,6.91,1.12a57,57,0,0,0,7.28.37H3094c1.37,0,2.81-.05,4.3-.18s3.23-.31,5.22-.56,4.36-.5,7.1-.75l-24.64,40.7q-10.84,17.93-16.44,27.63t-8.4,14.38a31.65,31.65,0,0,0-3.17,6.16,12.3,12.3,0,0,0-.37,3q0,6.34,7.46,6.35,9,0,23.16-14.19T3121,376.43q3-4.49,4.48-4.48c.75,0,1.12.25,1.12.74s-.94,2.06-2.8,4.67-4.11,5.79-6.72,9.52-5.55,7.66-8.78,11.77-6.1,7.78-8.59,11q-11.19,14.2-20.35,20.36a33.39,33.39,0,0,1-18.85,6.16,23.06,23.06,0,0,1-17.18-7.29,24.44,24.44,0,0,1-7.09-17.74q0-7.83,5.22-18.29-13.44,23.16-24.64,33.23t-22.41,10.09a25.93,25.93,0,0,1-11.39-2.62,29,29,0,0,1-9.33-7.09,36.09,36.09,0,0,1-6.35-10.64,34.85,34.85,0,0,1-2.43-12.89q0-11.56,7.84-23.9A98,98,0,0,1,2993,356.45a113.39,113.39,0,0,1,27.26-16.8q14.92-6.52,28.75-6.54,15.3,0,15.31,12.33a23.93,23.93,0,0,1-.94,7.09,54.75,54.75,0,0,1-3.92,8.59Zm-22,2.61q-4.49,0-11,4.67a92.12,92.12,0,0,0-13.63,12.33,183.69,183.69,0,0,0-14,17.17q-6.91,9.53-12.51,19.05a138.57,138.57,0,0,0-9.15,18.29q-3.56,8.77-3.55,14.75a10.74,10.74,0,0,0,2.24,6.91,7.27,7.27,0,0,0,6,2.8q8.21,0,17.92-8.59T3037,396.22a315.52,315.52,0,0,0,17.92-30.62q6.72-13.44,6.72-19.42Q3061.65,336.48,3053.07,336.47Z"/><path class="cls-3" d="M923.1,499.41l29,90.83H937.29L930.1,566H899.78l-7.19,24.23H878l29-90.83ZM902.31,556.8h25.26l-12.82-43Z"/><path class="cls-3" d="M1009,496.43h14v93.81H1009.4v-7.45a51.38,51.38,0,0,1-9.23,6.3A26.28,26.28,0,0,1,987.44,592a22.48,22.48,0,0,1-18-8.12q-6.9-8.13-6.9-25.18t7.29-25.31a23.61,23.61,0,0,1,18.37-8.12,31.86,31.86,0,0,1,11.76,2,33.05,33.05,0,0,1,9,5.35Zm0,45.49a20.28,20.28,0,0,0-8.16-6.44,22.88,22.88,0,0,0-8.94-2.09q-8,0-11.57,6.83t-3.59,18.34q0,11.66,3.5,18.42t11.47,6.76a17.15,17.15,0,0,0,9-3,37.39,37.39,0,0,0,8.25-6.9Z"/><path class="cls-3" d="M1058.58,590.24,1035.83,527H1050L1066,576.84,1081.71,527h14.38l-22.94,63.21Z"/><path class="cls-3" d="M1168.2,558.56a46.68,46.68,0,0,1-1.74,12.87,29.38,29.38,0,0,1-5.55,10.69,25.9,25.9,0,0,1-9.81,7.24,35.73,35.73,0,0,1-14.39,2.64,34.94,34.94,0,0,1-14.28-2.64,26.05,26.05,0,0,1-9.72-7.24,29.36,29.36,0,0,1-5.54-10.69,48.16,48.16,0,0,1,0-25.73,28.66,28.66,0,0,1,5.54-10.62,26.35,26.35,0,0,1,9.72-7.18,35,35,0,0,1,14.28-2.63,35.73,35.73,0,0,1,14.39,2.63,26.2,26.2,0,0,1,9.81,7.18,28.68,28.68,0,0,1,5.55,10.62A46.66,46.66,0,0,1,1168.2,558.56Zm-14.38,0q0-13.53-4.76-19.35a15.22,15.22,0,0,0-12.35-5.82,14.75,14.75,0,0,0-12,5.82Q1120,545,1120,558.56t4.66,19.43a14.67,14.67,0,0,0,12,5.89,15.14,15.14,0,0,0,12.35-5.89Q1153.82,572.09,1153.82,558.56Z"/><path class="cls-3" d="M1214.66,533.39a16.92,16.92,0,0,0-13.41,6.09q-5.25,6.09-5.25,19.08,0,25.32,18.66,25.32a20.5,20.5,0,0,0,9.33-2,37.61,37.61,0,0,0,7.38-4.94l2.53.26V587.4a49.27,49.27,0,0,1-10.79,3.59,59.44,59.44,0,0,1-11.37,1q-13.41,0-21.86-8.6t-8.46-24.84a37.34,37.34,0,0,1,2.53-14.28,30.41,30.41,0,0,1,6.9-10.42,29.08,29.08,0,0,1,10.1-6.43,34.2,34.2,0,0,1,12.15-2.16,48.85,48.85,0,0,1,10.7,1,53.36,53.36,0,0,1,10.1,3.59V540l-2.53.27a37.17,37.17,0,0,0-7.38-4.94A20.5,20.5,0,0,0,1214.66,533.39Z"/><path class="cls-3" d="M1287.93,590.24v-5.82a32,32,0,0,1-20.8,7.44,23.65,23.65,0,0,1-8.55-1.42,17.76,17.76,0,0,1-6.22-3.92,16.29,16.29,0,0,1-3.79-5.82,19.49,19.49,0,0,1-1.27-7q0-11.65,9.53-16.86t30.71-5.48v-4.87q0-6.9-3.11-10.29c-2.07-2.25-5.57-3.39-10.49-3.39a32.08,32.08,0,0,0-10.4,1.63,24,24,0,0,0-8.07,4.47l-3.5-.27v-9.62a105,105,0,0,1,11.67-2.63,74.28,74.28,0,0,1,12.82-1.15q13.41,0,19.34,5.27t5.93,16.52v43.18Zm-.39-31.81a121.79,121.79,0,0,0-12.83,1.22,25.92,25.92,0,0,0-8,2.37,8.9,8.9,0,0,0-4.08,4.06,14.5,14.5,0,0,0-1.17,6.16,13.21,13.21,0,0,0,2.63,8.46,8.56,8.56,0,0,0,7.09,3.31,19,19,0,0,0,8.17-2,24.87,24.87,0,0,0,8.16-6.63Z"/><path class="cls-3" d="M1339.63,576.3q0,4.05,2.15,5.28a10.87,10.87,0,0,0,5.44,1.21,10.07,10.07,0,0,0,5-1.21l2.72.4v8.4a24.48,24.48,0,0,1-5,.94c-2,.18-3.63.27-5.06.27q-9.92,0-14.58-3.11t-4.66-11.5V535.42h-10.89V527h10.89V509.7h14V527h15.56v8.39h-15.56Z"/><path class="cls-3" d="M1400.47,583.88a33.27,33.27,0,0,0,9.62-1.56,21.63,21.63,0,0,0,8.85-5.08l2.53.28v9.88a58.77,58.77,0,0,1-23.13,4.6q-14.58,0-23.13-8.26t-8.56-24.5a39.79,39.79,0,0,1,2.43-14.41,31.28,31.28,0,0,1,6.61-10.63,28.24,28.24,0,0,1,9.82-6.63,31.41,31.41,0,0,1,12-2.3q8.94,0,14.38,2.91a21.54,21.54,0,0,1,8.46,7.85,30.39,30.39,0,0,1,4,11.3,87.45,87.45,0,0,1,1,13.26H1381q.39,11.38,5,17.33C1389,581.89,1393.87,583.88,1400.47,583.88Zm-3.3-50.63a13.08,13.08,0,0,0-11,5.21q-4,5.22-5,15h30.32a54.46,54.46,0,0,0-.48-7.24,18.67,18.67,0,0,0-2-6.43,12.8,12.8,0,0,0-4.38-4.67A13.56,13.56,0,0,0,1397.17,533.25Z"/><path class="cls-3" d="M1458,584.29c4,0,7.1-.82,9.24-2.44a7.52,7.52,0,0,0,3.2-6.23,9.06,9.06,0,0,0-2.33-6.09,31,31,0,0,0-5.83-5.14q-3.49-2.45-7.58-4.74a58.55,58.55,0,0,1-7.58-5.08,29.3,29.3,0,0,1-5.83-6.09,13.21,13.21,0,0,1-2.33-7.79,11.78,11.78,0,0,1,1.94-6.7,16.67,16.67,0,0,1,5-4.87,23,23,0,0,1,7.2-2.91,36.8,36.8,0,0,1,8.35-.94,43.18,43.18,0,0,1,10.11,1.08,63.63,63.63,0,0,1,8.55,2.7v9.62l-2.52.27a20.16,20.16,0,0,0-7.1-4.67,22,22,0,0,0-7.48-1.29,12.94,12.94,0,0,0-7.49,2,6.19,6.19,0,0,0-2.81,5.35,8.26,8.26,0,0,0,2.33,5.69,32.29,32.29,0,0,0,5.83,4.94q3.49,2.37,7.68,4.8a66,66,0,0,1,7.67,5.21,28.93,28.93,0,0,1,5.84,6.16,13.32,13.32,0,0,1,2.33,7.72,13.81,13.81,0,0,1-2,7.64,17.11,17.11,0,0,1-5.54,5.35,26,26,0,0,1-8,3.19,42.48,42.48,0,0,1-9.33,1,64.1,64.1,0,0,1-11.18-1,49.87,49.87,0,0,1-10.79-3.25v-9.74l2.73-.27A27.31,27.31,0,0,0,1458,584.29Z"/><path class="cls-3" d="M1515,588.89l-8.75,13.4h-8l7.58-12h-5V577.79H1515Z"/><path class="cls-3" d="M1572.1,499.41H1637v9.75h-25.08v81.08h-14.77V509.16H1572.1Z"/><path class="cls-3" d="M1677.06,590.24v-5.82a32,32,0,0,1-20.8,7.44,23.65,23.65,0,0,1-8.55-1.42,17.76,17.76,0,0,1-6.22-3.92,16.29,16.29,0,0,1-3.79-5.82,19.49,19.49,0,0,1-1.27-7q0-11.65,9.53-16.86t30.71-5.48v-4.87q0-6.9-3.11-10.29c-2.08-2.25-5.57-3.39-10.49-3.39a32,32,0,0,0-10.4,1.63,24,24,0,0,0-8.07,4.47l-3.5-.27v-9.62a105.3,105.3,0,0,1,11.66-2.63,74.48,74.48,0,0,1,12.83-1.15q13.41,0,19.34,5.27t5.93,16.52v43.18Zm-.39-31.81a121.52,121.52,0,0,0-12.83,1.22,25.92,25.92,0,0,0-8,2.37,8.9,8.9,0,0,0-4.08,4.06,14.5,14.5,0,0,0-1.17,6.16,13.21,13.21,0,0,0,2.63,8.46,8.56,8.56,0,0,0,7.09,3.31,19,19,0,0,0,8.17-2,24.87,24.87,0,0,0,8.16-6.63Z"/><path class="cls-3" d="M1704.27,590.24l22.35-32.62-21-30.59h14l14,22.06L1747.81,527h13.8l-21,30.59,22.55,32.62h-14l-15.55-24-15.55,24Z"/><path class="cls-3" d="M1888.33,590.24a31.4,31.4,0,0,1-4.47-2.64c-1.94-1.31-4.14-3-6.61-4.94a40.56,40.56,0,0,1-12,6.83,44.79,44.79,0,0,1-15.54,2.51,47.61,47.61,0,0,1-12.35-1.49,31.47,31.47,0,0,1-9.62-4.26,20,20,0,0,1-6.32-6.77,18.09,18.09,0,0,1-2.23-9,25.17,25.17,0,0,1,1.46-8.74,29.82,29.82,0,0,1,4-7.44,42.42,42.42,0,0,1,5.83-6.43q3.3-3,6.8-5.68a82.11,82.11,0,0,1-6.6-11.65,25.15,25.15,0,0,1-2.53-10.42,22.78,22.78,0,0,1,1.65-8.66,20.13,20.13,0,0,1,4.86-7.11,23.24,23.24,0,0,1,7.87-4.81,29.64,29.64,0,0,1,10.5-1.76,43.38,43.38,0,0,1,7.87.75,20.22,20.22,0,0,1,7.1,2.71,15.37,15.37,0,0,1,5,5.21,16,16,0,0,1,1.94,8.26,17.12,17.12,0,0,1-2,8.25,33.31,33.31,0,0,1-5.25,7.18,61.26,61.26,0,0,1-7.29,6.5l-8.16,6.22a132.33,132.33,0,0,0,10.69,12.25q6,6.17,12.83,12.12a63.39,63.39,0,0,0,5-19.76H1893a68.44,68.44,0,0,1-2.63,14.55,44.63,44.63,0,0,1-5.92,12.52q5.43,4.47,10.88,8.46c3.63,2.66,7.12,5.08,10.5,7.24Zm-37.51-6.63q11.27,0,18.66-7.45-6.42-5.55-13.32-12.18a178.19,178.19,0,0,1-12.92-13.81,45.17,45.17,0,0,0-7.48,9,20,20,0,0,0-3,10.89,12.07,12.07,0,0,0,1.07,4.87,12.53,12.53,0,0,0,3.3,4.4,16.33,16.33,0,0,0,5.64,3.11A24.91,24.91,0,0,0,1850.82,583.61Zm-9.33-64.43q0,7.17,5.44,16a76.26,76.26,0,0,0,10.4-9.13,15.12,15.12,0,0,0,4.37-10.63q0-4.59-2.52-7a9.43,9.43,0,0,0-6.81-2.43,10.58,10.58,0,0,0-7.67,3.11Q1841.49,512.14,1841.49,519.18Z"/><path class="cls-3" d="M1954.81,545.84a67.33,67.33,0,0,1,2.52-18.75,44,44,0,0,1,7.68-15.23,37,37,0,0,1,12.83-10.28,40.6,40.6,0,0,1,18.17-3.8,60,60,0,0,1,16,1.9,121.87,121.87,0,0,1,12.24,4.06v12l-3.5.27a40.15,40.15,0,0,0-10.4-6.57,32.81,32.81,0,0,0-12.92-2.36q-8,0-13.22,3.58a26.6,26.6,0,0,0-8.36,9.21,40.82,40.82,0,0,0-4.37,12.52,74.38,74.38,0,0,0-1.27,13.54,68.38,68.38,0,0,0,1.27,13.06,36.14,36.14,0,0,0,4.37,11.78,25.31,25.31,0,0,0,8.36,8.52q5.25,3.31,13.22,3.32,7.77,0,12.82-2.44a65,65,0,0,0,10.5-6.49l3.5.26v12a103.2,103.2,0,0,1-12.15,4.06,60.58,60.58,0,0,1-16,1.9,44.67,44.67,0,0,1-18.26-3.45,35,35,0,0,1-12.93-9.61,39.38,39.38,0,0,1-7.58-14.62A66.74,66.74,0,0,1,1954.81,545.84Z"/><path class="cls-3" d="M2101.36,558.56a46.31,46.31,0,0,1-1.75,12.87,29.36,29.36,0,0,1-5.54,10.69,25.86,25.86,0,0,1-9.82,7.24,35.64,35.64,0,0,1-14.38,2.64,34.94,34.94,0,0,1-14.28-2.64,26.05,26.05,0,0,1-9.72-7.24,29.21,29.21,0,0,1-5.54-10.69,48.16,48.16,0,0,1,0-25.73,28.51,28.51,0,0,1,5.54-10.62,26.35,26.35,0,0,1,9.72-7.18,35,35,0,0,1,14.28-2.63,35.65,35.65,0,0,1,14.38,2.63,26.16,26.16,0,0,1,9.82,7.18,28.66,28.66,0,0,1,5.54,10.62A46.29,46.29,0,0,1,2101.36,558.56Zm-14.38,0q0-13.53-4.76-19.35a15.22,15.22,0,0,0-12.35-5.82,14.75,14.75,0,0,0-12,5.82q-4.67,5.82-4.66,19.35t4.66,19.43a14.67,14.67,0,0,0,12,5.89,15.14,15.14,0,0,0,12.35-5.89Q2087,572.09,2087,558.56Z"/><path class="cls-3" d="M2149.37,534.2a13.74,13.74,0,0,0-7.29,2.57,89.56,89.56,0,0,0-10.21,8.12v45.35h-13.8V527h13.8v8.25a67.49,67.49,0,0,1,9.92-7.17,20.33,20.33,0,0,1,10.49-2.84,24,24,0,0,1,3.5.2,11.55,11.55,0,0,1,2.92.88v10l-2.53.27A11.32,11.32,0,0,0,2149.37,534.2Z"/><path class="cls-3" d="M2185.91,618h-14V527h13.61v7.3a56.89,56.89,0,0,1,9.23-6.15,26.26,26.26,0,0,1,12.74-2.91q11.27,0,18.07,8.05t6.81,25.24q0,17.21-7.3,25.32A23.42,23.42,0,0,1,2206.9,592a32.65,32.65,0,0,1-12-2,33.11,33.11,0,0,1-9-5.35Zm0-42.64a23,23,0,0,0,17.11,8.53q8.16,0,11.66-6.84t3.5-18.34q0-11.64-3.5-18.41t-11.47-6.77a17.21,17.21,0,0,0-9,3,38,38,0,0,0-8.26,6.9Z"/><path class="cls-3" d="M2308.55,558.56a46.68,46.68,0,0,1-1.74,12.87,29.52,29.52,0,0,1-5.54,10.69,26,26,0,0,1-9.82,7.24,35.71,35.71,0,0,1-14.38,2.64,35,35,0,0,1-14.29-2.64,26.05,26.05,0,0,1-9.72-7.24,29.36,29.36,0,0,1-5.54-10.69,48.16,48.16,0,0,1,0-25.73,28.66,28.66,0,0,1,5.54-10.62,26.35,26.35,0,0,1,9.72-7.18,35,35,0,0,1,14.29-2.63,35.71,35.71,0,0,1,14.38,2.63,26.32,26.32,0,0,1,9.82,7.18,28.81,28.81,0,0,1,5.54,10.62A46.66,46.66,0,0,1,2308.55,558.56Zm-14.38,0q0-13.53-4.76-19.35a15.21,15.21,0,0,0-12.34-5.82,14.76,14.76,0,0,0-12.06,5.82q-4.66,5.82-4.66,19.35T2265,578a14.69,14.69,0,0,0,12.06,5.89,15.14,15.14,0,0,0,12.34-5.89Q2294.17,572.09,2294.17,558.56Z"/><path class="cls-3" d="M2356.56,534.2a13.74,13.74,0,0,0-7.28,2.57,88.68,88.68,0,0,0-10.21,8.12v45.35h-13.8V527h13.8v8.25a68,68,0,0,1,9.91-7.17,20.39,20.39,0,0,1,10.5-2.84,24,24,0,0,1,3.5.2,11.48,11.48,0,0,1,2.91.88v10l-2.52.27A11.33,11.33,0,0,0,2356.56,534.2Z"/><path class="cls-3" d="M2413.9,590.24v-5.82a32,32,0,0,1-20.79,7.44,23.7,23.7,0,0,1-8.56-1.42,17.71,17.71,0,0,1-6.21-3.92,16.31,16.31,0,0,1-3.8-5.82,19.48,19.48,0,0,1-1.26-7q0-11.65,9.53-16.86t30.7-5.48v-4.87q0-6.9-3.11-10.29c-2.07-2.25-5.57-3.39-10.49-3.39a32.08,32.08,0,0,0-10.4,1.63,24.08,24.08,0,0,0-8.07,4.47l-3.49-.27v-9.62a104.27,104.27,0,0,1,11.66-2.63,74.4,74.4,0,0,1,12.83-1.15q13.41,0,19.34,5.27t5.92,16.52v43.18Zm-.39-31.81a121.56,121.56,0,0,0-12.82,1.22,25.75,25.75,0,0,0-8,2.37,8.81,8.81,0,0,0-4.08,4.06,14.5,14.5,0,0,0-1.17,6.16,13.27,13.27,0,0,0,2.62,8.46,8.58,8.58,0,0,0,7.1,3.31,18.94,18.94,0,0,0,8.16-2,24.77,24.77,0,0,0,8.16-6.63Z"/><path class="cls-3" d="M2465.6,576.3c0,2.7.72,4.46,2.14,5.28a10.94,10.94,0,0,0,5.45,1.21,10.07,10.07,0,0,0,5-1.21l2.72.4v8.4a24.48,24.48,0,0,1-5.05.94c-1.95.18-3.63.27-5.06.27q-9.92,0-14.58-3.11t-4.66-11.5V535.42h-10.89V527h10.89V509.7h14V527h15.55v8.39H2465.6Z"/><path class="cls-3" d="M2526.44,583.88a33.27,33.27,0,0,0,9.62-1.56,21.69,21.69,0,0,0,8.85-5.08l2.52.28v9.88a58.69,58.69,0,0,1-23.12,4.6q-14.58,0-23.13-8.26t-8.56-24.5a39.79,39.79,0,0,1,2.43-14.41,31.28,31.28,0,0,1,6.61-10.63,28.24,28.24,0,0,1,9.82-6.63,31.41,31.41,0,0,1,12.05-2.3q8.92,0,14.38,2.91a21.51,21.51,0,0,1,8.45,7.85,30.22,30.22,0,0,1,4,11.3,87.45,87.45,0,0,1,1,13.26H2507q.39,11.38,5,17.33C2515,581.89,2519.84,583.88,2526.44,583.88Zm-3.3-50.63a13.08,13.08,0,0,0-11,5.21q-4,5.22-5,15h30.32a52.83,52.83,0,0,0-.49-7.24,18.45,18.45,0,0,0-2-6.43,12.88,12.88,0,0,0-4.38-4.67A13.56,13.56,0,0,0,2523.14,533.25Z"/><path class="cls-3" d="M2650.84,499.41l29,90.83H2665l-7.2-24.23h-30.32l-7.19,24.23h-14.58l29-90.83ZM2630,556.8h25.27l-12.83-43Z"/><path class="cls-3" d="M2736.75,496.43h14v93.81h-13.6v-7.45a51.38,51.38,0,0,1-9.23,6.3,26.29,26.29,0,0,1-12.74,2.91,22.49,22.49,0,0,1-18-8.12q-6.9-8.13-6.89-25.18t7.28-25.31a23.62,23.62,0,0,1,18.37-8.12,31.83,31.83,0,0,1,11.76,2,33.26,33.26,0,0,1,9,5.35Zm0,45.49a20.35,20.35,0,0,0-8.16-6.44,22.92,22.92,0,0,0-9-2.09q-8,0-11.56,6.83t-3.6,18.34q0,11.66,3.5,18.42t11.47,6.76a17.15,17.15,0,0,0,9-3,37.68,37.68,0,0,0,8.26-6.9Z"/><path class="cls-3" d="M2786.31,590.24,2763.57,527h14.19l15.94,49.81L2809.44,527h14.38l-22.93,63.21Z"/><path class="cls-3" d="M2836.26,502H2851v12h-14.78Zm.39,88.26V527h14v63.21Z"/><path class="cls-3" d="M2886.8,584.29c4,0,7.09-.82,9.23-2.44a7.53,7.53,0,0,0,3.21-6.23,9.07,9.07,0,0,0-2.34-6.09,31,31,0,0,0-5.83-5.14q-3.5-2.45-7.58-4.74a58.55,58.55,0,0,1-7.58-5.08,29.56,29.56,0,0,1-5.83-6.09,13.21,13.21,0,0,1-2.33-7.79,11.86,11.86,0,0,1,1.94-6.7,16.67,16.67,0,0,1,5-4.87,23.14,23.14,0,0,1,7.2-2.91,37,37,0,0,1,8.36-.94,43.15,43.15,0,0,1,10.1,1.08,63.63,63.63,0,0,1,8.55,2.7v9.62l-2.52.27a20.08,20.08,0,0,0-7.1-4.67,22,22,0,0,0-7.48-1.29,12.89,12.89,0,0,0-7.48,2,6.2,6.2,0,0,0-2.82,5.35,8.31,8.31,0,0,0,2.33,5.69,32.64,32.64,0,0,0,5.83,4.94q3.49,2.37,7.68,4.8a67,67,0,0,1,7.68,5.21,29.12,29.12,0,0,1,5.83,6.16,13.32,13.32,0,0,1,2.33,7.72,13.81,13.81,0,0,1-2,7.64,17.11,17.11,0,0,1-5.54,5.35,25.85,25.85,0,0,1-8,3.19,42.42,42.42,0,0,1-9.33,1,64,64,0,0,1-11.17-1,49.54,49.54,0,0,1-10.79-3.25v-9.74l2.72-.27A27.31,27.31,0,0,0,2886.8,584.29Z"/><path class="cls-3" d="M2989.23,558.56a46.31,46.31,0,0,1-1.75,12.87,29.21,29.21,0,0,1-5.54,10.69,25.9,25.9,0,0,1-9.81,7.24,35.73,35.73,0,0,1-14.39,2.64,34.94,34.94,0,0,1-14.28-2.64,26.05,26.05,0,0,1-9.72-7.24,29.36,29.36,0,0,1-5.54-10.69,48.16,48.16,0,0,1,0-25.73,28.66,28.66,0,0,1,5.54-10.62,26.35,26.35,0,0,1,9.72-7.18,35,35,0,0,1,14.28-2.63,35.73,35.73,0,0,1,14.39,2.63,26.2,26.2,0,0,1,9.81,7.18,28.51,28.51,0,0,1,5.54,10.62A46.29,46.29,0,0,1,2989.23,558.56Zm-14.38,0q0-13.53-4.76-19.35a15.22,15.22,0,0,0-12.35-5.82,14.75,14.75,0,0,0-12,5.82Q2941,545,2941,558.56t4.66,19.43a14.67,14.67,0,0,0,12,5.89,15.14,15.14,0,0,0,12.35-5.89Q2974.85,572.09,2974.85,558.56Z"/><path class="cls-3" d="M3037.24,534.2a13.79,13.79,0,0,0-7.29,2.57,89.61,89.61,0,0,0-10.2,8.12v45.35H3006V527h13.8v8.25a68,68,0,0,1,9.91-7.17,20.39,20.39,0,0,1,10.5-2.84,24,24,0,0,1,3.5.2,11.61,11.61,0,0,1,2.91.88v10l-2.52.27A11.33,11.33,0,0,0,3037.24,534.2Z"/><path class="cls-3" d="M3075.73,584.29c4,0,7.09-.82,9.23-2.44a7.52,7.52,0,0,0,3.2-6.23,9.06,9.06,0,0,0-2.33-6.09,31,31,0,0,0-5.83-5.14q-3.49-2.45-7.58-4.74a58.55,58.55,0,0,1-7.58-5.08,29.3,29.3,0,0,1-5.83-6.09,13.21,13.21,0,0,1-2.33-7.79,11.78,11.78,0,0,1,1.94-6.7,16.67,16.67,0,0,1,5.05-4.87,23,23,0,0,1,7.2-2.91,36.8,36.8,0,0,1,8.35-.94,43.18,43.18,0,0,1,10.11,1.08,63.63,63.63,0,0,1,8.55,2.7v9.62l-2.52.27a20.16,20.16,0,0,0-7.1-4.67,22,22,0,0,0-7.48-1.29,12.94,12.94,0,0,0-7.49,2,6.19,6.19,0,0,0-2.81,5.35,8.31,8.31,0,0,0,2.33,5.69,32.29,32.29,0,0,0,5.83,4.94q3.49,2.37,7.68,4.8a66,66,0,0,1,7.67,5.21,28.93,28.93,0,0,1,5.84,6.16,13.32,13.32,0,0,1,2.33,7.72,13.81,13.81,0,0,1-2,7.64,17.11,17.11,0,0,1-5.54,5.35,26,26,0,0,1-8,3.19,42.48,42.48,0,0,1-9.33,1,64.1,64.1,0,0,1-11.18-1,49.87,49.87,0,0,1-10.79-3.25v-9.74l2.73-.27A27.31,27.31,0,0,0,3075.73,584.29Z"/><path class="cls-4" d="M399.06,466.13a9.68,9.68,0,0,1-.71-1.22h0c-.27-.54-.55-1.09-.85-1.65-.65-1.24-1.39-2.55-2.16-3.88-1.18-2.06-2.47-4.2-3.82-6.35h0l-.13-.22-.12-.19c-.23-.37-.45-.74-.69-1.1-.12-.17-.23-.35-.35-.53v0c-.44-.69-.87-1.38-1.33-2.05,0,0,0,0,0-.06a4.23,4.23,0,0,1-.33-.53l0,0c0-.06-.07-.11-.1-.16h0s0,0,0,0h0a0,0,0,0,0,0,0,.59.59,0,0,0-.12-.17v0c-.43-.66-.84-1.3-1.26-1.92l-.21-.32-.49-.71c-.33-.48-.65-1-1-1.43v0s0,0,0,0l-.29-.42-.12-.18-.21-.31,0-.06h0c-.41-.59-.8-1.13-1.17-1.67h0l-.49-.73a0,0,0,0,0,0,0c-.22-.32-.43-.6-.64-.9l-.9-1.23c-.57-.79-1.1-1.48-1.58-2.09s-.84-1.07-1.17-1.45l0,0a9.19,9.19,0,0,0-1-.53v0c.05.13.11.27.16.43.14.36.29.8.47,1.3l0,.08c.43,1.22,1,2.82,1.58,4.64,0,.05,0,.09.05.13l.49,1.49.11.31c.23.67.46,1.38.7,2.11v0h0v0c.32,1,.64,2,1,3v0c.25.72.49,1.47.72,2.19v0l0,0v0h.05v0a.25.25,0,0,1,0,.09v0c.33,1,.67,2,1,3,.08.26.16.49.24.73,0,.05,0,.09,0,.14l.36,1.07a.9.9,0,0,0,.21.23l-.18-.13a4.34,4.34,0,0,0,.14.43v.06l.44,1.38.06.19,0,.09c.15.47.3.92.43,1.34v0c.12.32.22.63.31.92s.18.57.26.82h0a.1.1,0,0,1,0,0l.18.17c9.63,31,18.37,62.15,24,94.15,3.69,21,4.58,42.19,6.74,65.11,4.13-23.35,6-45,4.8-66.87-1.63-30.66-8.59-59.77-22.95-86.59Z"/><path class="cls-4" d="M163.91,349.58c24.09,14.11,61.18,12.12,81.37-4.05-20.07-25.84-31.18-56-40.61-87.23C195.33,290.69,181.13,320.5,163.91,349.58Z"/><path class="cls-4" d="M614.07,270.1c-.17-.4-.32-.8-.46-1.21h0c-4.1-10.72-6.71-19-6.71-19-.84,4.52-1.49,8.23-2.17,11.93-7.9,30.62-20.31,59.4-36.46,87.47,30,13.24,58.23,11.59,87-4-14-17.79-24.56-36.92-33.31-56.91a22.67,22.67,0,0,1-1.24-2.41c-2.46-5.39-4.71-10.87-6.66-15.89Z"/><path class="cls-5" d="M712.54,653.61h0c-.64,1.57-1.21,3.13,0,4.59h0C711.33,656.74,711.9,655.18,712.54,653.61Z"/><path class="cls-5" d="M721,653.77l-.92,1.11.92-1.11Z"/><path class="cls-5" d="M720.09,654.92q-.47.55-1,1.08h0Q719.63,655.47,720.09,654.92Z"/><polygon class="cls-6" points="399.02 662.27 399.8 668.82 399.8 668.82 399.02 662.27 399.02 662.27"/><polygon class="cls-6" points="400.71 676.38 400.71 676.38 400.6 675.52 400.71 676.38"/><polygon class="cls-6" points="400.72 676.36 400.73 676.32 400.73 676.32 400.72 676.36"/><path class="cls-7" d="M435.31,678.45l-.44.59a3.47,3.47,0,0,0-.13.46,3.47,3.47,0,0,1,.13-.46Z"/><path class="cls-7" d="M442.71,674.21,441,675.55Z"/><path class="cls-7" d="M444.25,673l-1.54,1.23Z"/><path class="cls-8" d="M200.59,678.12l1-.14-1,.14Z"/><path class="cls-8" d="M204.15,677.57c-1,.17-1.86.31-2.58.41C202.29,677.88,203.15,677.74,204.15,677.57Z"/><path class="cls-8" d="M211.55,676c-2.91.69-5.41,1.18-7.4,1.53C206.14,677.22,208.64,676.73,211.55,676Z"/><path class="cls-8" d="M214.93,675.18h0l-.72.2Z"/><polygon class="cls-8" points="212.34 678.5 212.34 678.5 215.12 677.8 212.34 678.5"/><polygon class="cls-7" points="426 668.02 426 668.02 424.8 670.29 424.8 670.29 424.8 670.29 426 668.02"/><path class="cls-6" d="M401.35,606.72c1.65,5.17,1.65,10.61,2.36,15.93C403,617.33,403,611.89,401.35,606.72Z"/><path class="cls-6" d="M403.74,622.87c.11.81.23,1.62.39,2.43h0C404,624.49,403.85,623.68,403.74,622.87Z"/><path class="cls-7" d="M460.92,635.79h0c-1.68,1.77-3.42,3.71-5.14,5.73q1.22-1.42,2.43-2.79C459.12,637.71,460,636.73,460.92,635.79Z"/><path class="cls-9" d="M357.67,616.43h0Z"/><path class="cls-9" d="M361.87,621.29h0l-.18-.16,0,0A.94.94,0,0,0,361.87,621.29Z"/><path class="cls-6" d="M399.15,597.31a3.88,3.88,0,0,1,.62,1.77A3.88,3.88,0,0,0,399.15,597.31Z"/><path class="cls-6" d="M399.78,599.17c0,.2,0,.41,0,.61C399.82,599.58,399.8,599.37,399.78,599.17Z"/><path class="cls-7" d="M468.59,641.83l-.09.07Z"/><path class="cls-7" d="M469.56,641.09h0a4.22,4.22,0,0,1-.41.43,5.9,5.9,0,0,0,.5-.5h0Z"/><polygon class="cls-8" points="237.3 672.17 239.68 671.55 237.3 672.17 233.19 673.23 233.19 673.23 237.3 672.17"/><path class="cls-6" d="M397.83,592.67a3,3,0,0,1,.08.32A3,3,0,0,0,397.83,592.67Z"/><path class="cls-6" d="M397.57,592.07c0,.07.07.15.11.23C397.64,592.22,397.61,592.14,397.57,592.07Z"/><path class="cls-6" d="M398,593.28c0,.15,0,.3.05.45C398,593.58,398,593.43,398,593.28Z"/><path class="cls-8" d="M234,668.6l.2-.09.14-.06-.14.06Z"/><polygon class="cls-8" points="223.09 675.78 224.39 675.44 223.09 675.78 222.94 675.8 222.11 676.01 222.94 675.8 223.09 675.78"/><path class="cls-10" d="M682.53,706.76h0a2.58,2.58,0,0,0,2,3.38h0C683.26,709.35,683.65,707.63,682.53,706.76Z"/><polygon class="cls-8" points="231.68 673.58 232.16 673.46 231.68 673.58 228.79 674.33 228.79 674.33 228.79 674.33 231.68 673.58"/><path class="cls-8" d="M227.39,671.21h.06l1.65-.63-1.65.63Z"/><path class="cls-8" d="M222.32,673h0c.64-.2,1.31-.43,2-.66-.66.23-1.33.46-2,.66Z"/><polygon class="cls-7" points="442.43 663.88 442.43 663.88 442.44 663.87 442.44 663.87 442.44 663.87 442.43 663.88"/><path class="cls-11" d="M131.49,710.07h0c1,2.12,2,2.21,3,0C133.53,711.39,132.52,711.34,131.49,710.07Z"/><path class="cls-7" d="M458.76,654.63h0l-.14.06.14-.06Z"/><path class="cls-11" d="M129.6,708.4h0c.1,1.13.67,1.72,1.84,1.63A5.15,5.15,0,0,1,129.6,708.4Z"/><path class="cls-10" d="M681.07,704.73h0a1.6,1.6,0,0,0,1.46,2h0A6.45,6.45,0,0,1,681.07,704.73Z"/><path class="cls-7" d="M432.24,674.38h0v0h0Z"/><path class="cls-9" d="M367.15,619.75v0h0Z"/><polygon class="cls-7" points="437.61 669.21 437.61 669.21 437.61 669.2 437.61 669.21"/><polygon class="cls-7" points="437.61 669.17 437.6 669.19 437.61 669.19 437.61 669.17"/><path class="cls-7" d="M438,668.16c.18-.18.35-.35.55-.53h0l-.49.47Z"/><polygon class="cls-7" points="439.35 667.4 439.37 667.4 439.37 667.38 439.35 667.4"/><polygon class="cls-7" points="441.12 665.68 441.12 665.68 441.12 665.67 441.12 665.68"/><path class="cls-7" d="M441.09,665.64l0,0v0h0l0,0h0Z"/><polygon class="cls-7" points="448.34 658.66 448.36 658.66 448.36 658.64 448.34 658.66"/><path class="cls-7" d="M450.11,657l0,0a2.64,2.64,0,0,1-.41.32h0a2.64,2.64,0,0,0,.41-.32l0,0h0Z"/><path class="cls-7" d="M450.2,656.89l.09-.07h0Z"/><path class="cls-11" d="M134.58,710h0a1.45,1.45,0,0,0,1.59-1.73h0A2.51,2.51,0,0,1,134.58,710Z"/><path class="cls-12" d="M399.06,466.13a3,3,0,0,1-.19-.3,10.43,10.43,0,0,1-.52-.92,9.68,9.68,0,0,0,.71,1.22Z"/><path class="cls-13" d="M380.47,436.72l-.68-.87c.48.61,1,1.3,1.58,2.09Z"/><path class="cls-13" d="M378.59,436.75l.66,1.93c.18.52.36,1.07.55,1.64-.61-1.82-1.15-3.42-1.58-4.64C378.33,436,378.46,436.36,378.59,436.75Z"/><path class="cls-13" d="M380.34,441.94l-.49-1.49Z"/><path class="cls-13" d="M377.87,434.7c.1.27.21.57.32.9-.18-.5-.33-.94-.47-1.3Z"/><path class="cls-13" d="M377.56,433.85h0v0Z"/><path class="cls-14" d="M613.61,268.89c.14.41.29.81.46,1.21C613.9,269.7,613.75,269.3,613.61,268.89Z"/><path class="cls-13" d="M385.71,458.36c-.13-.42-.28-.87-.43-1.34.15.47.3.92.43,1.34v0c.11.32.22.63.31.92-.09-.29-.19-.6-.31-.92Z"/><path class="cls-13" d="M385.25,456.93l-.06-.19Z"/><path class="cls-13" d="M386,459.3c.09.3.18.57.26.82h0C386.2,459.87,386.11,459.6,386,459.3Z"/><path class="cls-13" d="M384.56,454.77l-.36-1.07.36,1.07a.09.09,0,0,0,0,.07h0v0h0l.18.13A.9.9,0,0,1,384.56,454.77Z"/><path class="cls-13" d="M386.27,444.94c-.33-.48-.65-1-1-1.43v0C385.62,444,385.94,444.46,386.27,444.94Z"/><path class="cls-13" d="M388.52,448.3c0-.06-.07-.11-.1-.16h0C388.45,448.19,388.49,448.24,388.52,448.3Z"/><path class="cls-13" d="M384.61,442.5h0c-.41-.59-.8-1.13-1.17-1.67h0C383.81,441.37,384.2,441.91,384.61,442.5Z"/><path class="cls-13" d="M391.52,453l-.13-.22.13.22Z"/><path class="cls-15" d="M152.42,701.77c.25,5.07-1.26,9.49,1.08,13.73H669.11c1.35-4.77.88-9,.43-13.73Z"/><path class="cls-15" d="M723.05,307.87C769.74,381,778.92,460,758.7,543.2a378.58,378.58,0,0,1-46.16,110.41h0c-.64,1.57-1.21,3.13,0,4.59h0a2.64,2.64,0,0,0,.47.48c7-6,11.16-13.14,15.6-19.77,31.59-47,48.86-99.29,54.46-155.37,5.23-52.42,0-103.74-19.16-153.18a249.17,249.17,0,0,0-42.42-72.08c-1.46-1.7-2.5-4-5.11-4.25-3.31,1.7-1.17,5.8-3.68,7.73-1.58,8.33-3.16,16.66-4.72,24.9,2.66,3.66,5.12,7,7.52,10.32C718.05,300.58,720.67,304.14,723.05,307.87Z"/><path class="cls-15" d="M93.86,263.12c-34.66,45-52,96.63-56.43,152.74C31.35,493.39,47.73,565.77,89.2,632c5.37,8.54,11.73,16.48,17.67,24.78,2.32-2,1.38-3.56,1.58-4.95C87.53,617,71.65,580,62.11,540.51,45.06,470,49,401.29,81.24,335.25a308,308,0,0,1,31.94-51c-2.41-11.43-4.66-22.08-6.91-32.72C99.87,253,97.3,258.67,93.86,263.12Z"/><path class="cls-15" d="M154.31,693.65H668.25c2.13-1.75,1.58-3.52,1.13-6.1H152.76C152.48,690.2,151.84,692.27,154.31,693.65Z"/><path class="cls-15" d="M388,677.54a51.69,51.69,0,0,0-2.09-4.88c-.1-.21-.21-.42-.3-.62a3,3,0,0,1-.62-1.33c-21-38.94-52.38-61.05-97.74-61.15-31.89-.08-63.82.21-95.46-4.61-13.26-2-26.68-3.35-39.59-7.48,27.07-.59,54-2.15,81-3.89,13.24-.86,26.53-1.27,39.72-2.73,23.15-2.55,45.29-.16,66,11.17l0,0c.2.09,1.19.57,2.75,1.45h0q1.54.91,3.74,2.38l.07,0,0,0h0s0,0,0-.06a3.68,3.68,0,0,1,1.32,1c1.73,1.26,3.63,2.75,5.65,4.54h0s0,0,0,0c.52.48,1,.94,1.56,1.46h0l.18.16.05.06c.55.51,1.1,1,1.63,1.61l0,0c.28.28.57.58.85.88s.5.52.73.78c1.34,1.44,2.69,3,4,4.68l0,0s0,0,0,0a.58.58,0,0,0,.14.12l.19.2c9.08,11.57,16.84,23.91,22.05,37.66a3.47,3.47,0,0,0,.15.36.61.61,0,0,0,0,.11c1.19,2.83,2.16,5.53,2.8,7.33a8.92,8.92,0,0,1,.62,1.87c.09.26.15.4.15.4C390,676.76,388.19,678.37,388,677.54Z"/><path class="cls-15" d="M207.89,679.63v0l-.23.05h0a1.89,1.89,0,0,0,0,.23c55.44.37,110.91.43,166.38-1.08-.09-3.4-1.69-4.29-3-5.37-18.87-15.34-40.4-20.81-64.42-18.15-21.54,2.39-41.84,9.73-62.61,15.15l-4.17,1,0,0h0l-2.38.62-4.11,1.06h-.07l-1,.23-.48.12-2.89.75h0l-1.49.37-2,.5h0l-.48.12-.45.12-1.3.34-.15,0-.83.21-.34.09-6.09,1.56-.56.14-2.78.69h0Z"/><path class="cls-15" d="M499.73,654.67c-19.18,1.07-41.52,11.55-49.6,24.17H613.84c-15-4-29.41-8.06-43.86-12.08C547,660.36,524.14,653.3,499.73,654.67Z"/><path class="cls-15" d="M665.29,679.13c-9.12,1.49-24.46-.55-39.6-4.41-24.6-6.26-48.32-15.28-72.52-22.78-38.84-12-74.15-5.46-106.34,19-.07,0-.1.09-.14.1a3.43,3.43,0,0,0-.28.22c-.11.07-.23.18-.38.28-.44.36-1.06.83-1.77,1.4-.48.37-1,.8-1.56,1.22s-1.1.89-1.66,1.35c-.29.21-.57.45-.86.68l-4.55,3.63-.36.28-.07,0-.55-.29c0-.1.06-.21.09-.33a4.45,4.45,0,0,1,.13-.45c.12-.17.26-.37.44-.6l1.31-1.68c1.33-1.67,3.23-4,5.62-6.6A145.51,145.51,0,0,1,455.84,657a3.5,3.5,0,0,0,.3-.24l1.19-1a.7.7,0,0,0,.17-.14l0,0a2.07,2.07,0,0,0,.25-.19,1.34,1.34,0,0,1,.34-.37,1.51,1.51,0,0,1,.42-.27.09.09,0,0,0,.05,0l0,0,.14-.06s6.88-5.46,10.58-7.42c34.94-23.17,70.95-22,107.09-2.7A374.71,374.71,0,0,0,661,677.57C662.35,677.91,663.65,678.53,665.29,679.13Z"/><path class="cls-15" d="M402.46,677.7l0,0v-.05Z"/><path class="cls-15" d="M241,551.86c14.73,2.46,27.34,5.15,39.64,9.14,24,7.77,46.5,18.15,65.32,35.37l.05,0c.78.83,12,12.76,19.49,21.29l0,0,0,0c.23.25.44.5.64.73l1,1.22,0,0,0,0h0c14,16.45,20.85,36.33,26.74,56.64,2.32-7.64-.93-14.77-2.15-22C378.53,576.39,316.29,546.63,241,551.86Z"/><path class="cls-15" d="M586.91,605.39C543,601.51,504.16,614.13,469.73,641l-.08.07h0l-.07.07c-.07,0-.16.13-.27.2l-.69.53-.11.07-1,.78,0,0c-2.86,2.22-8,6.33-13.87,11.28v0c-.41.33-.82.69-1.23,1.06l-.05,0h0l-.39.33-.23.2a3.33,3.33,0,0,1-1.38,1.19.55.55,0,0,1-.09.07l-.07.07h0l0,0a2.64,2.64,0,0,1-.41.32s0,0,0,0l0,0,0,0,0,0,0,0-3.32,2.94c-.37.36-.76.69-1.15,1.05h0l-2.57,2.38,0,0v0c-.22.19-.41.39-.62.58l-.61.55-2.67,2.59c-.18.16-.32.32-.5.48l0,0-.11.11h0v0c-.82.82-1.63,1.63-2.41,2.45l-3.18,3.6h0v0h0c-.86,1-1.64,1.85-2.21,2.41l-.34.41s.09-.12.13-.19c-.41.39-.64.55-.57.31.39-1.22,5.55-7.81,5.55-7.81h0c1.11-1.63,2.37-3.46,3.74-5.41l.9-1.29c3-4.19,6.38-8.88,10-13.48a.12.12,0,0,0,.07-.07s.07-.09.11-.12c.78-1,1.58-2,2.37-3a.35.35,0,0,0,.08-.1c1.13-1.4,2.26-2.79,3.42-4.12v0l.32-.37c.8-.94,1.62-1.88,2.43-2.79s1.81-2,2.71-2.94c.38-.34.75-.67,1.1-1l2.22-2,.07-.07c13.7-12.51,28.4-23.5,46.36-29.6C535.71,594.54,559.31,594.93,586.91,605.39Z"/><path class="cls-15" d="M441.09,665.64h0v0h0Z"/><polygon class="cls-15" points="437.61 669.2 437.61 669.21 437.61 669.21 437.61 669.19 437.61 669.19 437.6 669.19 437.6 669.19 437.61 669.2"/><path class="cls-15" d="M441.11,665.66h0v0h0Z"/><path class="cls-15" d="M403.71,622.65c-.71-5.32-.71-10.76-2.36-15.93h0c-.52-2.71-1-5-1.53-6.93h0c0-.2,0-.41,0-.61,0,0,0-.06,0-.09a3.88,3.88,0,0,0-.62-1.77h0c-.43-1.51-.82-2.68-1.14-3.57h0c0-.15,0-.3-.05-.45a2.93,2.93,0,0,0,0-.29,3,3,0,0,0-.08-.32,2.39,2.39,0,0,0-.15-.37c0-.08-.07-.16-.11-.23a2.32,2.32,0,0,0-.46-.54c-5.94-12.41-11.59-24.91-20.65-35.58-17.82-21-40.37-35.42-64.63-47.56l-.06,0c-6.12-3.74-12.25-7.46-20.12-7.12l15,8.83h0c16.66,13,33.24,26,46.85,42.49,26.41,32,41.61,68.46,45.52,109.71h0l.78,6.54h0v0l.8,6.67.11.86h0v-.07h0c.16,1,.46,1.69.95-1.57,2.76-14.4,2.88-28.5,2.6-42.55a28.74,28.74,0,0,0-.07-3.46c0-1.15,0-2.3-.08-3.44h0c-.16-.81-.28-1.62-.39-2.43Z"/><path class="cls-15" d="M419,660.31,418,662.72v0l-1,2.32v0l-5.36,12.17a25.29,25.29,0,0,0,1.85-1.8,62.59,62.59,0,0,0,4.89-5.68l.32,0s0,0,0,0c.43-.69.85-1.36,1.31-2,.13-.2.27-.38.37-.57.45-.62.89-1.28,1.33-2l.82-1.28c5.94-9.07,10.85-18.73,15.76-28.38,32-62.82,38.82-127.33,12.5-193.78-5.5-13.92-14.27-26.43-18.21-41.11-3.54-13.21-7.32-26.34-11-39.51-.05,36.28,5.28,71.88,14.34,106.6A266.07,266.07,0,0,1,440,585.87C435.26,611.35,427,635.77,419,660.31Z"/><path class="cls-15" d="M480.14,569.09C465.27,603.81,448.25,637.33,426,668h0l-1.2,2.27h0L421.23,677s.09.52.91.16l-.16.39a2.67,2.67,0,0,1,.21-.41,4.67,4.67,0,0,0,1-.58c1.08-.82,9-10.51,18.72-22,2.57-3,5.26-6.17,8-9.33l.06-.07c.79-.92,1.61-1.86,2.41-2.76,1.66-1.94,3.35-3.83,5-5.68h0l1.07-1.17q1.27-1.44,2.55-2.82l.32-.36-.09,0c10.33-14.75,20.92-29.3,28.66-45.77,12.27-26,17.62-53,14.27-81.77C496.66,526.54,489.13,548.08,480.14,569.09Z"/><path class="cls-15" d="M381.26,671.26c-4.36-5.55-8.69-11.13-13.06-16.66-26-32.85-60.75-41.18-98.49-23.13-12.22,5.83-23.76,13-35.85,19.14C208,663.69,181,673.92,152.39,679.52c16.1,1.26,32,.18,47.88-1.24.11,0,.21-.12.32-.16h0l1-.14c.72-.1,1.58-.24,2.58-.41,2-.35,4.49-.84,7.4-1.53.73-.17,1.49-.36,2.26-.56l.4-.1.72-.2h0c.27-.07.55-.14.83-.23h0c1.14-.3,2.29-.64,3.51-1h0c1-.28,2-.58,3-.94h0c.64-.2,1.31-.43,2-.66l.5-.17c.87-.29,1.7-.6,2.6-.94h.06l1.65-.63,1-.38h0l1.46-.59c.78-.32,1.59-.66,2.39-1l.2-.09.14-.06c.5-.2,1-.42,1.5-.64h.06c17.3-7.4,34.74-14.38,53-19.27,34.45-9.26,63.7.16,88.83,24.51h0S386.85,683.49,381.26,671.26Z"/><path class="cls-16" d="M721,653.77h0l-.92,1.11-.92,1.12h0q.5-.53,1-1.08C720.39,654.54,720.69,654.16,721,653.77Z"/><path class="cls-16" d="M819.48,418.21c-5.21-82.28-35.29-154.38-89.29-216.56-2.14-2.47-3.9-5.62-8.13-6.86.1,17.55-3.39,34.1-2.2,50.93,19.34,18.47,32.33,41.23,42.61,65.44,30.6,72.06,33.91,146.55,17.09,222.21-10.78,48.48-30.75,92.85-64.26,130.25-9.2,10.27-18.58,20.55-30.86,27.44-1.29,3.18-5.62,3.32-6.75,7-.46,2.83,2.72,4.14,3.38,6.67h0a6.45,6.45,0,0,0,1.46,2h0c1.12.87.73,2.59,2,3.37h0c3.34,4.43,6,1.34,8.83-.75a293.31,293.31,0,0,0,67.54-70.62C806,572.08,824.55,498.25,819.48,418.21Z"/><path class="cls-16" d="M107.92,663.11c-18.6-18.17-31.82-40-42.71-63.32C31.53,527.66,24.07,452.2,38.37,374.46,47.49,325,66.93,279.93,100.86,242.7V217.48c-.82-8-1.63-16.06-2.53-24.84-2,1.26-3.5,1.76-4.37,2.79-12.65,14.78-25.18,29.74-35.36,46.35C-7.54,349.77-18.26,463,29.33,580.5c21,51.83,54.73,94.77,100.27,127.9h0a5.15,5.15,0,0,0,1.84,1.63h0l.05,0h0c1,1.27,2,1.32,3,0h0l.06-.07h0a2.51,2.51,0,0,0,1.59-1.73h0c2.2-4.34,6.15-7.74,7.2-13.24C130.87,685.14,117.79,675.87,107.92,663.11Z"/><path class="cls-16" d="M458.2,163.47c-13.26,1.28-23.64,7.28-30,19.43-5.92,11.32-7.27,23.65-7.46,36.09-.45,30.72-.59,61.44-.77,92.17,0,2.09-.85,4.45,1.59,7,4.31-29.41,8.64-58.17,9.21-87.3C431.28,205,439,182.24,458.2,163.47Z"/><path class="cls-16" d="M371.92,101.65c-1-3.12-1.88-5.54-2.49-8-4.61-18.92,2.2-32.85,20.05-40.92,3.46-1.56,7.09-2.77,10.65-4.12a88.05,88.05,0,0,0,18.2-9C433,29.63,437.53,17.85,432.27,0c-6.14,13.78-16.67,20.54-27.93,26.55-9.38,5-19.52,8.1-29.32,12-9,3.63-16.24,9.6-20.7,18.24C347.22,70.61,354.65,89.68,371.92,101.65Z"/><path class="cls-16" d="M615.55,185.53a149.19,149.19,0,0,1-44.77-6.91c-31.42-9.66-58.86-26.84-86-44.71-2.45-1.61-4.5-3.93-7.87-3.06-8.9-.06-17.78-.06-26.68-1a88.64,88.64,0,0,1-26.7-6.89c1.24,4.11,3.21,4.92,5,5.67,14.32,5.81,29.78,6.2,44.65,9.39.46,1,1.95,1.37,1.95,3.53a6.65,6.65,0,0,1-.25,1.72c-44.76,5.62-90,7-135.41.43,6.93-7,15.56-4.9,23.51-5.5,15.44-1.15,25.95-8.79,30.68-23.47,2.23-6.88,6.13-10.92,13.9-11.26S423,95,424.3,86.12c-12.21,13.3-24.92,11.19-38.45.59.32,7.55.91,13.65.8,19.71-.25,16.86-7.64,24.73-24.43,26.43a148.48,148.48,0,0,1-15,1.15c-9.81,0-18.07,3.39-26.35,8.65-26.64,17-54.15,32.27-84.34,42.33-13.81,4.61-28.17,5.48-42.83,7-2.3,56.14-21.45,106.25-50.68,152.68,14.2,34.17,42.16,43.82,69.35,40.29,29.07-3.78,44-18.12,51.81-48.36C244.68,313,234.34,285,225.73,255.94c-3.55-11.93-1.74-21.21,6.48-29.88,24.88-26.13,53.72-47,86.72-61.23,30.28-13.08,55.42.34,63.86,32.08,6,22.69,5,45.54,2.26,68.54a94.18,94.18,0,0,1-9.75,32.68c-11.36,22-20.51,45-24.64,69.76-7.33,44,3.35,84.91,21.49,124.33,12.35,26.84,22.6,54.26,28.7,83.11a.22.22,0,0,1,0,.12.49.49,0,0,1,0,.12c1.42,10.41,10.3,78.16,4.84,101.17l3.62-7.71c2.69-9.34,5.71-18.6,8.51-27.9s5.46-18.67,7.36-28.15c12.46-62.13,7.71-123.35-14-182.87a220.61,220.61,0,0,1-13.1-78.92c.33-28.61,5.63-56.92,5.92-85.58.25-24.75,3.79-49.37,2.53-74.21-.55-11,4.47-20,13.26-26.64,20.85-15.87,56.27-16.11,77.27-.6s42.17,31.09,63.18,46.74a79.09,79.09,0,0,1,17.48,17.41,2.46,2.46,0,0,1,1.12,1.58,3,3,0,0,0,.93,1.7,47.2,47.2,0,0,1,3.23,5.55c3.9,6.86,4.11,13.88,1.54,21.27-1.84,5.28-3,10.79-4.77,16.11a310.54,310.54,0,0,1-32.65,69.93c4.34,3.66,6.67,8.46,9.77,12.68,5.42,7.39,11.89,13.74,20.3,17.94,21,10.46,42.15,9.87,63.23.94,17.88-7.59,30-20.25,31.91-41.57C638.19,291.5,623.87,239.88,615.55,185.53Zm-370.27,160c-20.19,16.17-57.28,18.16-81.37,4.05,17.22-29.08,31.42-58.89,40.76-91.28C214.1,289.57,225.21,319.69,245.28,345.53ZM398.35,464.91l.27.49a4,4,0,0,0,.24.41v0c.07.1.13.21.2.3C413.42,493,420.38,522.06,422,552.72c1.17,21.84-.67,43.52-4.8,66.87-2.16-22.92-3-44.14-6.74-65.11-5.63-32-14.37-63.18-24-94.15l-.18-.17a.1.1,0,0,0,0,0c-.07-.25-.16-.53-.25-.82s-.21-.6-.32-.92v0c-.12-.42-.28-.86-.43-1.34a.24.24,0,0,0,0-.09.83.83,0,0,1-.05-.2c-.15-.44-.31-.88-.45-1.36a.43.43,0,0,0,0-.05v0a2.72,2.72,0,0,1-.15-.43v0a.15.15,0,0,1,0-.07c-.13-.34-.23-.71-.36-1.07a.7.7,0,0,1,0-.14c-.09-.25-.16-.48-.25-.73-.32-1-.66-2-1-3v0a.25.25,0,0,0,0-.09v0h-.05v0l0,0v0c-.23-.72-.47-1.47-.72-2.19v0c-.34-1-.66-2-1-3v0h0v0c-.24-.73-.47-1.44-.7-2.11a3,3,0,0,1-.11-.32c-.16-.49-.34-1-.5-1.47a.7.7,0,0,1,0-.14l-.57-1.65q-.17-.48-.3-.9s0-.07,0-.09-.1-.32-.16-.48a4.5,4.5,0,0,0-.16-.44,4.76,4.76,0,0,0-.19-.57,3.38,3.38,0,0,0-.18-.51s0-.06,0-.08c-.12-.33-.23-.63-.32-.9s-.1-.27-.14-.41-.12-.3-.16-.42a6.18,6.18,0,0,1,1,.51l0,0c.34.39.74.89,1.17,1.45.23.29.44.55.67.87s.59.78.91,1.22.58.8.9,1.23l.64.9a0,0,0,0,1,0,0l.49.73h0c.37.54.76,1.08,1.17,1.67l0,.05.21.32.12.18.29.42v0s0,0,0,0c.34.46.66.94,1,1.44.18.23.34.46.5.7l.21.32c.42.62.83,1.26,1.26,1.92v0a.59.59,0,0,1,.12.17,0,0,0,0,1,0,0h0s0,0,0,0l.11.16s0,0,0,0a5.84,5.84,0,0,0,.33.53s0,0,0,.06c.46.67.89,1.36,1.33,2.05v0c.12.18.23.36.35.53.24.36.47.73.7,1.1a1.86,1.86,0,0,1,.1.2c.06.07.09.14.14.21,1.35,2.14,2.65,4.29,3.83,6.35.77,1.32,1.49,2.64,2.15,3.88C397.8,463.82,398.08,464.37,398.35,464.91ZM568.26,349.28c16.15-28.07,28.56-56.85,36.46-87.47.68-3.7,1.33-7.41,2.17-11.93,0,0,2.6,8.3,6.71,19v0c.15.41.31.8.46,1.21h0c1.93,5,4.19,10.51,6.65,15.9a24.81,24.81,0,0,0,1.24,2.41c8.76,20,19.29,39.12,33.31,56.9C626.49,360.87,598.31,362.52,568.26,349.28Z"/></svg>